<svg version="1.1" id="Icons" xmlns="http://www.w3.org/2000/svg" xmlns:xlink="http://www.w3.org/1999/xlink" x="0px" y="0px" viewBox="0 0 32 32" style="enable-background:new 0 0 32 32;" xml:space="preserve">
<g>
	<path d="M21,23c-0.3,0-0.5-0.1-0.7-0.3c-0.4-0.4-0.4-1,0-1.4l5.3-5.3l-5.3-5.3c-0.4-0.4-0.4-1,0-1.4s1-0.4,1.4,0l6,6
		c0.4,0.4,0.4,1,0,1.4l-6,6C21.5,22.9,21.3,23,21,23z" id="id_103" style="fill: rgb(255, 255, 255);"></path>
</g>
<g>
	<path d="M27,17H5c-0.6,0-1-0.4-1-1s0.4-1,1-1h22c0.6,0,1,0.4,1,1S27.6,17,27,17z" id="id_104" style="fill: rgb(255, 255, 255);"></path>
</g>
</svg>